<?xml version="1.0" encoding="UTF-8" standalone="no"?>
<!-- Created with Inkscape (http://www.inkscape.org/) -->

<svg
   version="1.1"
   id="svg1"
   width="958.66669"
   height="810.66669"
   viewBox="0 0 958.66669 810.66669"
   sodipodi:docname="buket.eps"
   xmlns:inkscape="http://www.inkscape.org/namespaces/inkscape"
   xmlns:sodipodi="http://sodipodi.sourceforge.net/DTD/sodipodi-0.dtd"
   xmlns="http://www.w3.org/2000/svg"
   xmlns:svg="http://www.w3.org/2000/svg">
  <defs
     id="defs1">
    <clipPath
       clipPathUnits="userSpaceOnUse"
       id="clipPath2">
      <path
         d="M 0,10 V 6070 H 7183 V 10 Z"
         transform="translate(0,2.5000001e-5)"
         id="path2" />
    </clipPath>
    <clipPath
       clipPathUnits="userSpaceOnUse"
       id="clipPath4">
      <path
         d="M 0,10 V 6070 H 7183 V 10 Z"
         transform="translate(0,2.5000001e-5)"
         id="path4" />
    </clipPath>
    <clipPath
       clipPathUnits="userSpaceOnUse"
       id="clipPath6">
      <path
         d="M 0,10 V 6070 H 7183 V 10 Z"
         transform="translate(0,2.5000001e-5)"
         id="path6" />
    </clipPath>
    <clipPath
       clipPathUnits="userSpaceOnUse"
       id="clipPath8">
      <path
         d="M 0,10 V 6070 H 7183 V 10 Z"
         transform="translate(0,2.5000001e-5)"
         id="path8" />
    </clipPath>
    <clipPath
       clipPathUnits="userSpaceOnUse"
       id="clipPath10">
      <path
         d="M 0,10 V 6070 H 7183 V 10 Z"
         transform="translate(0,2.5000001e-5)"
         id="path10" />
    </clipPath>
    <clipPath
       clipPathUnits="userSpaceOnUse"
       id="clipPath12">
      <path
         d="M 0,10 V 6070 H 7183 V 10 Z"
         transform="translate(0,2.5000001e-5)"
         id="path12" />
    </clipPath>
    <clipPath
       clipPathUnits="userSpaceOnUse"
       id="clipPath14">
      <path
         d="M 0,10 V 6070 H 7183 V 10 Z"
         transform="translate(0,2.5000001e-5)"
         id="path14" />
    </clipPath>
    <clipPath
       clipPathUnits="userSpaceOnUse"
       id="clipPath16">
      <path
         d="M 0,10 V 6070 H 7183 V 10 Z"
         transform="translate(0,2.5000001e-5)"
         id="path16" />
    </clipPath>
    <clipPath
       clipPathUnits="userSpaceOnUse"
       id="clipPath18">
      <path
         d="M 0,10 V 6070 H 7183 V 10 Z"
         transform="translate(0,2.5000001e-5)"
         id="path18" />
    </clipPath>
    <clipPath
       clipPathUnits="userSpaceOnUse"
       id="clipPath20">
      <path
         d="M 0,10 V 6070 H 7183 V 10 Z"
         transform="translate(0,2.5000001e-5)"
         id="path20" />
    </clipPath>
    <clipPath
       clipPathUnits="userSpaceOnUse"
       id="clipPath22">
      <path
         d="M 0,10 V 6070 H 7183 V 10 Z"
         transform="translate(0,2.5000001e-5)"
         id="path22" />
    </clipPath>
    <clipPath
       clipPathUnits="userSpaceOnUse"
       id="clipPath24">
      <path
         d="M 0,10 V 6070 H 7183 V 10 Z"
         transform="translate(0,2.5000001e-5)"
         id="path24" />
    </clipPath>
    <clipPath
       clipPathUnits="userSpaceOnUse"
       id="clipPath26">
      <path
         d="M 0,10 V 6070 H 7183 V 10 Z"
         transform="translate(0,2.5000001e-5)"
         id="path26" />
    </clipPath>
    <clipPath
       clipPathUnits="userSpaceOnUse"
       id="clipPath28">
      <path
         d="M 0,10 V 6070 H 7183 V 10 Z"
         transform="translate(0,2.5000001e-5)"
         id="path28" />
    </clipPath>
    <clipPath
       clipPathUnits="userSpaceOnUse"
       id="clipPath30">
      <path
         d="M 0,10 V 6070 H 7183 V 10 Z"
         transform="translate(0,2.5000001e-5)"
         id="path30" />
    </clipPath>
    <clipPath
       clipPathUnits="userSpaceOnUse"
       id="clipPath32">
      <path
         d="M 0,10 V 6070 H 7183 V 10 Z"
         transform="translate(0,2.5000001e-5)"
         id="path32" />
    </clipPath>
    <clipPath
       clipPathUnits="userSpaceOnUse"
       id="clipPath34">
      <path
         d="M 0,10 V 6070 H 7183 V 10 Z"
         transform="translate(0,2.5000001e-5)"
         id="path34" />
    </clipPath>
    <clipPath
       clipPathUnits="userSpaceOnUse"
       id="clipPath36">
      <path
         d="M 0,10 V 6070 H 7183 V 10 Z"
         transform="translate(0,2.5000001e-5)"
         id="path36" />
    </clipPath>
    <clipPath
       clipPathUnits="userSpaceOnUse"
       id="clipPath38">
      <path
         d="M 0,10 V 6070 H 7183 V 10 Z"
         transform="translate(0,2.5000001e-5)"
         id="path38" />
    </clipPath>
    <clipPath
       clipPathUnits="userSpaceOnUse"
       id="clipPath40">
      <path
         d="M 0,10 V 6070 H 7183 V 10 Z"
         transform="translate(0,2.5000001e-5)"
         id="path40" />
    </clipPath>
    <clipPath
       clipPathUnits="userSpaceOnUse"
       id="clipPath42">
      <path
         d="M 0,10 V 6070 H 7183 V 10 Z"
         transform="translate(0,2.5000001e-5)"
         id="path42" />
    </clipPath>
    <clipPath
       clipPathUnits="userSpaceOnUse"
       id="clipPath44">
      <path
         d="M 0,10 V 6070 H 7183 V 10 Z"
         transform="translate(0,2.5000001e-5)"
         id="path44" />
    </clipPath>
    <clipPath
       clipPathUnits="userSpaceOnUse"
       id="clipPath46">
      <path
         d="M 0,10 V 6070 H 7183 V 10 Z"
         transform="translate(0,2.5000001e-5)"
         id="path46" />
    </clipPath>
    <clipPath
       clipPathUnits="userSpaceOnUse"
       id="clipPath48">
      <path
         d="M 0,10 V 6070 H 7183 V 10 Z"
         transform="translate(0,2.5000001e-5)"
         id="path48" />
    </clipPath>
    <clipPath
       clipPathUnits="userSpaceOnUse"
       id="clipPath50">
      <path
         d="M 0,10 V 6070 H 7183 V 10 Z"
         transform="translate(0,2.5000001e-5)"
         id="path50" />
    </clipPath>
    <clipPath
       clipPathUnits="userSpaceOnUse"
       id="clipPath52">
      <path
         d="M 0,10 V 6070 H 7183 V 10 Z"
         transform="translate(0,2.5000001e-5)"
         id="path52" />
    </clipPath>
    <clipPath
       clipPathUnits="userSpaceOnUse"
       id="clipPath54">
      <path
         d="M 0,10 V 6070 H 7183 V 10 Z"
         transform="translate(0,2.5000001e-5)"
         id="path54" />
    </clipPath>
    <clipPath
       clipPathUnits="userSpaceOnUse"
       id="clipPath56">
      <path
         d="M 0,10 V 6070 H 7183 V 10 Z"
         transform="translate(0,2.5000001e-5)"
         id="path56" />
    </clipPath>
    <clipPath
       clipPathUnits="userSpaceOnUse"
       id="clipPath58">
      <path
         d="M 0,10 V 6070 H 7183 V 10 Z"
         transform="translate(0,2.5000001e-5)"
         id="path58" />
    </clipPath>
    <clipPath
       clipPathUnits="userSpaceOnUse"
       id="clipPath60">
      <path
         d="M 0,10 V 6070 H 7183 V 10 Z"
         transform="translate(0,2.5000001e-5)"
         id="path60" />
    </clipPath>
    <clipPath
       clipPathUnits="userSpaceOnUse"
       id="clipPath62">
      <path
         d="M 0,10 V 6070 H 7183 V 10 Z"
         transform="translate(0,2.5000001e-5)"
         id="path62" />
    </clipPath>
    <clipPath
       clipPathUnits="userSpaceOnUse"
       id="clipPath64">
      <path
         d="M 0,10 V 6070 H 7183 V 10 Z"
         transform="translate(0,2.5000001e-5)"
         id="path64" />
    </clipPath>
    <clipPath
       clipPathUnits="userSpaceOnUse"
       id="clipPath66">
      <path
         d="M 0,10 V 6070 H 7183 V 10 Z"
         transform="translate(0,2.5000001e-5)"
         id="path66" />
    </clipPath>
    <clipPath
       clipPathUnits="userSpaceOnUse"
       id="clipPath68">
      <path
         d="M 0,10 V 6070 H 7183 V 10 Z"
         transform="translate(0,2.5000001e-5)"
         id="path68" />
    </clipPath>
    <clipPath
       clipPathUnits="userSpaceOnUse"
       id="clipPath70">
      <path
         d="M 0,10 V 6070 H 7183 V 10 Z"
         transform="translate(0,2.5000001e-5)"
         id="path70" />
    </clipPath>
    <clipPath
       clipPathUnits="userSpaceOnUse"
       id="clipPath72">
      <path
         d="M 0,10 V 6070 H 7183 V 10 Z"
         transform="translate(0,2.5000001e-5)"
         id="path72" />
    </clipPath>
    <clipPath
       clipPathUnits="userSpaceOnUse"
       id="clipPath74">
      <path
         d="M 0,10 V 6070 H 7183 V 10 Z"
         transform="translate(0,2.5000001e-5)"
         id="path74" />
    </clipPath>
    <clipPath
       clipPathUnits="userSpaceOnUse"
       id="clipPath76">
      <path
         d="M 0,10 V 6070 H 7183 V 10 Z"
         transform="translate(0,2.5000001e-5)"
         id="path76" />
    </clipPath>
    <clipPath
       clipPathUnits="userSpaceOnUse"
       id="clipPath78">
      <path
         d="M 0,10 V 6070 H 7183 V 10 Z"
         transform="translate(0,2.5000001e-5)"
         id="path78" />
    </clipPath>
    <clipPath
       clipPathUnits="userSpaceOnUse"
       id="clipPath80">
      <path
         d="M 0,10 V 6070 H 7183 V 10 Z"
         transform="translate(0,2.5000001e-5)"
         id="path80" />
    </clipPath>
    <clipPath
       clipPathUnits="userSpaceOnUse"
       id="clipPath82">
      <path
         d="M 0,10 V 6070 H 7183 V 10 Z"
         transform="translate(0,2.5000001e-5)"
         id="path82" />
    </clipPath>
    <clipPath
       clipPathUnits="userSpaceOnUse"
       id="clipPath83">
      <path
         d="M 0,10 V 6070 H 7183 V 10 Z"
         transform="matrix(0.1,0,0,-0.1,-250.477,135.809)"
         id="path83" />
    </clipPath>
  </defs>
  <sodipodi:namedview
     id="namedview1"
     pagecolor="#ffffff"
     bordercolor="#000000"
     borderopacity="0.25"
     inkscape:showpageshadow="2"
     inkscape:pageopacity="0.0"
     inkscape:pagecheckerboard="0"
     inkscape:deskcolor="#d1d1d1">
    <inkscape:page
       x="0"
       y="0"
       inkscape:label="1"
       id="page1"
       width="958.66669"
       height="810.66669"
       margin="0"
       bleed="0" />
  </sodipodi:namedview>
  <g
     id="g1"
     inkscape:groupmode="layer"
     inkscape:label="1">
    <path
       id="path1"
       d="m 3912.73,1761.02 -53.54,147.89 -78.35,136.36 -100.8,120.73 146.21,156.63 159.78,142.76 172.05,127.72 143.86,112.59 126.52,131.78 106.65,148.33 84.64,161.9 60.92,172.22 35.99,179.11 10.35,182.39 -15.51,182.02 -195.59,-31.77 -190.59,-54.25 -183.02,-75.97 -172.97,-96.67 -160.6,-116.08 -146.05,-133.91 -129.55,-149.95 -111.29,-163.95 -65.57,-141.93 -34.44,-152.5 -1.8,-156.33 30.93,-153.25 62.28,-143.4 90.89,-127.21 -93.57,-78.32 -74.27,-96.82 -51.39,-110.67 -26.06,-119.21 159.95,-51.3 167.07,-17.33 167.06,17.37 159.94,51.32 -0.13,-0.3"
       style="fill:#f0e68c;fill-opacity:1;fill-rule:evenodd;stroke:none"
       transform="matrix(0.13333333,0,0,-0.13333333,0,810.66667)"
       clip-path="url(#clipPath2)" />
    <path
       id="path3"
       d="m 3912.73,1761.02 -53.54,147.89 -78.35,136.36 -100.8,120.73 146.21,156.63 159.78,142.76 172.05,127.72 143.86,112.59 126.52,131.78 106.65,148.33 84.64,161.9 60.92,172.22 35.99,179.11 10.35,182.39 -15.51,182.02 -195.59,-31.77 -190.59,-54.25 -183.02,-75.97 -172.97,-96.67 -160.6,-116.08 -146.05,-133.91 -129.55,-149.95 -111.29,-163.95 -65.57,-141.93 -34.44,-152.5 -1.8,-156.33 30.93,-153.25 62.28,-143.4 90.89,-127.21 -93.57,-78.32 -74.27,-96.82 -51.39,-110.67 -26.06,-119.21 159.95,-51.3 167.07,-17.33 167.06,17.37 159.94,51.32"
       style="fill:none;stroke:#bdb76b;stroke-width:30;stroke-linecap:round;stroke-linejoin:round;stroke-miterlimit:10;stroke-dasharray:none;stroke-opacity:1"
       transform="matrix(0.13333333,0,0,-0.13333333,0,810.66667)"
       clip-path="url(#clipPath4)" />
    <path
       id="path5"
       d="m 3334.85,2496.02 -9.95,173.95 23.26,172.67 55.65,165.11 85.99,151.53 113.22,132.43 -140.7,137.72 -158.56,116.73 -173.3,93.44 -184.64,68.33 -192.39,41.87 -196.34,14.61 -33.3,-183.08 0.9,-186.08 35.05,-182.74 68.02,-173.21 98.68,-157.76 125.97,-136.95 148.98,-111.49 166.93,-82.22 179.19,-50.18 -12.66,-4.68"
       style="fill:#f0e68c;fill-opacity:1;fill-rule:evenodd;stroke:none"
       transform="matrix(0.13333333,0,0,-0.13333333,0,810.66667)"
       clip-path="url(#clipPath6)" />
    <path
       id="path7"
       d="m 3334.85,2496.02 -9.95,173.95 23.26,172.67 55.65,165.11 85.99,151.53 113.22,132.43 -140.7,137.72 -158.56,116.73 -173.3,93.44 -184.64,68.33 -192.39,41.87 -196.34,14.61 -33.3,-183.08 0.9,-186.08 35.05,-182.74 68.02,-173.21 98.68,-157.76 125.97,-136.95 148.98,-111.49 166.93,-82.22 179.19,-50.18"
       style="fill:none;stroke:#bdb76b;stroke-width:30;stroke-linecap:round;stroke-linejoin:round;stroke-miterlimit:10;stroke-dasharray:none;stroke-opacity:1"
       transform="matrix(0.13333333,0,0,-0.13333333,0,810.66667)"
       clip-path="url(#clipPath8)" />
    <path
       id="path9"
       d="m 4135.18,2601.1 -155.57,-31.44 -144.03,-66.69 -124.63,-98.27 -98.43,-124.51 -114.14,121.06 -135.79,96.16 -152.08,67.5 -162.41,36.18 -69.17,-129.61 -35.64,-142.51 0.01,-146.91 35.67,-142.51 69.19,-129.59 153.85,37.68 147.2,58.52 137.72,78.23 125.64,96.48 109.33,-103.3 126.54,-81.32 139.39,-56.53 147.43,-29.79 61.9,131.31 31.73,141.66 0.01,145.17 -31.7,141.67 -61.88,131.32 -0.14,0.04"
       style="fill:#ff69b4;fill-opacity:1;fill-rule:evenodd;stroke:none"
       transform="matrix(0.13333333,0,0,-0.13333333,0,810.66667)"
       clip-path="url(#clipPath10)" />
    <path
       id="path11"
       d="m 4135.18,2601.1 -155.57,-31.44 -144.03,-66.69 -124.63,-98.27 -98.43,-124.51 -114.14,121.06 -135.79,96.16 -152.08,67.5 -162.41,36.18 -69.17,-129.61 -35.64,-142.51 0.01,-146.91 35.67,-142.51 69.19,-129.59 153.85,37.68 147.2,58.52 137.72,78.23 125.64,96.48 109.33,-103.3 126.54,-81.32 139.39,-56.53 147.43,-29.79 61.9,131.31 31.73,141.66 0.01,145.17 -31.7,141.67 -61.88,131.32"
       style="fill:none;stroke:#c71585;stroke-width:30;stroke-linecap:round;stroke-linejoin:round;stroke-miterlimit:10;stroke-dasharray:none;stroke-opacity:1"
       transform="matrix(0.13333333,0,0,-0.13333333,0,810.66667)"
       clip-path="url(#clipPath12)" />
    <path
       id="path13"
       d="m 3734.75,2272.98 -12.64,59.48 -35.75,49.2 -52.66,30.41 -60.49,6.36 -57.83,-18.8 -45.2,-40.69 -24.73,-55.56 v -60.81 l 24.73,-55.56 45.2,-40.69 57.83,-18.79 60.49,6.35 52.66,30.41 35.75,49.2 12.64,59.49 v 0"
       style="fill:#ff69b4;fill-opacity:1;fill-rule:evenodd;stroke:none"
       transform="matrix(0.13333333,0,0,-0.13333333,0,810.66667)"
       clip-path="url(#clipPath14)" />
    <path
       id="path15"
       d="m 3734.75,2272.98 -12.64,59.48 -35.75,49.2 -52.66,30.41 -60.49,6.36 -57.83,-18.8 -45.2,-40.69 -24.73,-55.56 v -60.81 l 24.73,-55.56 45.2,-40.69 57.83,-18.79 60.49,6.35 52.66,30.41 35.75,49.2 12.64,59.49"
       style="fill:none;stroke:#c71585;stroke-width:30;stroke-linecap:round;stroke-linejoin:round;stroke-miterlimit:10;stroke-dasharray:none;stroke-opacity:1"
       transform="matrix(0.13333333,0,0,-0.13333333,0,810.66667)"
       clip-path="url(#clipPath16)" />
    <path
       id="path17"
       d="m 3017.75,3842.73 -148.11,19.29 -148.01,-20.04 -137.64,-58 -117.73,-91.92 -89.64,-119.47 -55.34,-138.73 -17.2,-148.36 22.13,-147.71 133.84,-28.82 136.81,5.44 131.12,39.35 117.2,70.77 95.88,97.73 68.5,118.53 36.82,131.87 2.82,136.87 -31.38,133.27 -0.07,-0.07"
       style="fill:#32cd32;fill-opacity:1;fill-rule:evenodd;stroke:none"
       transform="matrix(0.13333333,0,0,-0.13333333,0,810.66667)"
       clip-path="url(#clipPath18)" />
    <path
       id="path19"
       d="m 3017.75,3842.73 -148.11,19.29 -148.01,-20.04 -137.64,-58 -117.73,-91.92 -89.64,-119.47 -55.34,-138.73 -17.2,-148.36 22.13,-147.71 133.84,-28.82 136.81,5.44 131.12,39.35 117.2,70.77 95.88,97.73 68.5,118.53 36.82,131.87 2.82,136.87 -31.38,133.27"
       style="fill:none;stroke:#006400;stroke-width:30;stroke-linecap:round;stroke-linejoin:round;stroke-miterlimit:10;stroke-dasharray:none;stroke-opacity:1"
       transform="matrix(0.13333333,0,0,-0.13333333,0,810.66667)"
       clip-path="url(#clipPath20)" />
    <path
       id="path21"
       d="m 2696.6,4150 7.2,149.19 -32,145.89 -68.99,132.47 -101.18,109.88 -126.36,79.64 -142.76,43.88 -149.28,5.09 -145.42,-34.06 -17.85,-135.74 16.54,-135.9 49.87,-127.51 80.06,-111.06 105.2,-87.61 123.7,-58.65 134.42,-25.99 136.65,8.32 130.28,42.1 -0.08,0.06"
       style="fill:#32cd32;fill-opacity:1;fill-rule:evenodd;stroke:none"
       transform="matrix(0.13333333,0,0,-0.13333333,0,810.66667)"
       clip-path="url(#clipPath22)" />
    <path
       id="path23"
       d="m 2696.6,4150 7.2,149.19 -32,145.89 -68.99,132.47 -101.18,109.88 -126.36,79.64 -142.76,43.88 -149.28,5.09 -145.42,-34.06 -17.85,-135.74 16.54,-135.9 49.87,-127.51 80.06,-111.06 105.2,-87.61 123.7,-58.65 134.42,-25.99 136.65,8.32 130.28,42.1"
       style="fill:none;stroke:#006400;stroke-width:30;stroke-linecap:round;stroke-linejoin:round;stroke-miterlimit:10;stroke-dasharray:none;stroke-opacity:1"
       transform="matrix(0.13333333,0,0,-0.13333333,0,810.66667)"
       clip-path="url(#clipPath24)" />
    <path
       id="path25"
       d="m 2858.68,3947.35 -89.95,119.24 -117.96,91.62 -137.79,57.65 -148.06,19.67 -148.06,-19.67 -137.79,-57.65 -117.95,-91.62 -89.95,-119.24 73.16,-115.72 99.68,-93.84 119.92,-66.06 132.59,-34.11 h 136.91 l 132.59,34.11 119.91,66.06 99.68,93.84 73.16,115.72 h -0.09"
       style="fill:#7cfc00;fill-opacity:1;fill-rule:evenodd;stroke:none"
       transform="matrix(0.13333333,0,0,-0.13333333,0,810.66667)"
       clip-path="url(#clipPath26)" />
    <path
       id="path27"
       d="m 2858.68,3947.35 -89.95,119.24 -117.96,91.62 -137.79,57.65 -148.06,19.67 -148.06,-19.67 -137.79,-57.65 -117.95,-91.62 -89.95,-119.24 73.16,-115.72 99.68,-93.84 119.92,-66.06 132.59,-34.11 h 136.91 l 132.59,34.11 119.91,66.06 99.68,93.84 73.16,115.72"
       style="fill:none;stroke:#006400;stroke-width:30;stroke-linecap:round;stroke-linejoin:round;stroke-miterlimit:10;stroke-dasharray:none;stroke-opacity:1"
       transform="matrix(0.13333333,0,0,-0.13333333,0,810.66667)"
       clip-path="url(#clipPath28)" />
    <path
       id="path29"
       d="m 2934.05,4031.05 129.82,73.86 106.03,105.2 74.89,129.23 38.55,144.29 -0.46,149.37 -39.44,144.05 -75.69,128.77 -106.68,104.53 -124.17,-57.67 -105.89,-86.78 -80.94,-110.42 -50.87,-127.1 -17.61,-135.77 16.77,-135.88 50.09,-127.42 80.24,-110.92 105.35,-87.44 0.01,0.1"
       style="fill:#7cfc00;fill-opacity:1;fill-rule:evenodd;stroke:none"
       transform="matrix(0.13333333,0,0,-0.13333333,0,810.66667)"
       clip-path="url(#clipPath30)" />
    <path
       id="path31"
       d="m 2934.05,4031.05 129.82,73.86 106.03,105.2 74.89,129.23 38.55,144.29 -0.46,149.37 -39.44,144.05 -75.69,128.77 -106.68,104.53 -124.17,-57.67 -105.89,-86.78 -80.94,-110.42 -50.87,-127.1 -17.61,-135.77 16.77,-135.88 50.09,-127.42 80.24,-110.92 105.35,-87.44"
       style="fill:none;stroke:#006400;stroke-width:30;stroke-linecap:round;stroke-linejoin:round;stroke-miterlimit:10;stroke-dasharray:none;stroke-opacity:1"
       transform="matrix(0.13333333,0,0,-0.13333333,0,810.66667)"
       clip-path="url(#clipPath32)" />
    <path
       id="path33"
       d="m 4777.7,3884.35 66.15,-21.48 69.21,6.81 60.69,33.96 42,55.44 16.29,67.62 -12.18,68.47 -38.57,57.87 -58.54,37.57 -68.67,10.98 -67.33,-17.46 40.88,56.27 14.91,67.94 -13.55,68.21 -39.74,57.08 -59.28,36.37 -68.88,9.59 -66.96,-18.81 -53.82,-44.05 -31.66,-61.93 -4.21,-69.42 -40.89,56.26 -59.99,35.17 -69.07,8.2 -66.56,-20.16 -52.91,-45.14 -30.41,-62.55 -2.8,-69.49 25.27,-64.79 49.11,-49.25 64.72,-25.45 -66.14,-21.5 -51.99,-46.2 -29.14,-63.15 -1.39,-69.54 26.57,-64.27 50.09,-48.24 65.23,-24.14 69.43,4 62.02,31.49 44.2,53.69 0.01,-69.55 27.87,-63.72 51.06,-47.22 65.7,-22.81 69.34,5.41 61.36,32.73 43.11,54.57 17.65,67.28 -10.79,68.7 -37.4,58.64 v 0"
       style="fill:#ffa500;fill-opacity:1;fill-rule:evenodd;stroke:none"
       transform="matrix(0.13333333,0,0,-0.13333333,0,810.66667)"
       clip-path="url(#clipPath34)" />
    <path
       id="path35"
       d="m 4777.7,3884.35 66.15,-21.48 69.21,6.81 60.69,33.96 42,55.44 16.29,67.62 -12.18,68.47 -38.57,57.87 -58.54,37.57 -68.67,10.98 -67.33,-17.46 40.88,56.27 14.91,67.94 -13.55,68.21 -39.74,57.08 -59.28,36.37 -68.88,9.59 -66.96,-18.81 -53.82,-44.05 -31.66,-61.93 -4.21,-69.42 -40.89,56.26 -59.99,35.17 -69.07,8.2 -66.56,-20.16 -52.91,-45.14 -30.41,-62.55 -2.8,-69.49 25.27,-64.79 49.11,-49.25 64.72,-25.45 -66.14,-21.5 -51.99,-46.2 -29.14,-63.15 -1.39,-69.54 26.57,-64.27 50.09,-48.24 65.23,-24.14 69.43,4 62.02,31.49 44.2,53.69 0.01,-69.55 27.87,-63.72"
       style="fill:none;stroke:#ff6347;stroke-width:30;stroke-linecap:round;stroke-linejoin:round;stroke-miterlimit:10;stroke-dasharray:none;stroke-opacity:1"
       transform="matrix(0.13333333,0,0,-0.13333333,0,810.66667)"
       clip-path="url(#clipPath36)" />
    <path
       id="path37"
       d="m 4517.67,3667.05 51.06,-47.22 65.7,-22.81 69.34,5.41 61.36,32.73 43.11,54.57 17.65,67.28 -10.79,68.7 -37.4,58.64"
       style="fill:none;stroke:#ff6347;stroke-width:30;stroke-linecap:round;stroke-linejoin:round;stroke-miterlimit:10;stroke-dasharray:none;stroke-opacity:1"
       transform="matrix(0.13333333,0,0,-0.13333333,0,810.66667)"
       clip-path="url(#clipPath38)" />
    <path
       id="path39"
       d="m 4741.63,4040.95 -14.59,68.64 -41.25,56.77 -60.77,35.08 -69.79,7.34 -66.73,-21.69 -52.14,-46.95 -28.55,-64.1 v -70.18 l 28.55,-64.1 52.14,-46.95 66.73,-21.68 69.79,7.33 60.77,35.08 41.25,56.77 14.59,68.64 v 0"
       style="fill:#ffd700;fill-opacity:1;fill-rule:evenodd;stroke:none"
       transform="matrix(0.13333333,0,0,-0.13333333,0,810.66667)"
       clip-path="url(#clipPath40)" />
    <path
       id="path41"
       d="m 4741.63,4040.95 -14.59,68.64 -41.25,56.77 -60.77,35.08 -69.79,7.34 -66.73,-21.69 -52.14,-46.95 -28.55,-64.1 v -70.18 l 28.55,-64.1 52.14,-46.95 66.73,-21.68 69.79,7.33 60.77,35.08 41.25,56.77 14.59,68.64"
       style="fill:none;stroke:#ffd700;stroke-width:30;stroke-linecap:round;stroke-linejoin:round;stroke-miterlimit:10;stroke-dasharray:none;stroke-opacity:1"
       transform="matrix(0.13333333,0,0,-0.13333333,0,810.66667)"
       clip-path="url(#clipPath42)" />
    <path
       id="path43"
       d="m 4069.77,4292.5 66.15,-21.48 69.22,6.81 60.69,33.97 42,55.43 16.28,67.62 -12.17,68.47 -38.58,57.87 -58.53,37.57 -68.68,10.97 -67.32,-17.45 40.87,56.27 14.91,67.93 -13.55,68.22 -39.74,57.08 -59.28,36.38 -68.88,9.58 -66.96,-18.81 -53.81,-44.05 -31.67,-61.93 -4.2,-69.42 -40.89,56.26 -60,35.17 -69.06,8.2 -66.57,-20.16 -52.91,-45.14 -30.41,-62.55 -2.8,-69.49 25.27,-64.8 49.11,-49.24 64.72,-25.46 -66.14,-21.5 -51.99,-46.19 -29.13,-63.15 -1.4,-69.54 26.57,-64.27 50.1,-48.24 65.22,-24.14 69.44,4.01 62.01,31.48 44.21,53.69 0.01,-69.54 27.86,-63.73 51.06,-47.22 65.7,-22.82 69.34,5.41 61.36,32.74 43.12,54.57 17.64,67.28 -10.78,68.7 -37.41,58.64 v 0"
       style="fill:#00ced1;fill-opacity:1;fill-rule:evenodd;stroke:none"
       transform="matrix(0.13333333,0,0,-0.13333333,0,810.66667)"
       clip-path="url(#clipPath44)" />
    <path
       id="path45"
       d="m 4069.77,4292.5 66.15,-21.48 69.22,6.81 60.69,33.97 42,55.43 16.28,67.62 -12.17,68.47 -38.58,57.87 -58.53,37.57 -68.68,10.97 -67.32,-17.45 40.87,56.27 14.91,67.93 -13.55,68.22 -39.74,57.08 -59.28,36.38 -68.88,9.58 -66.96,-18.81 -53.81,-44.05 -31.67,-61.93 -4.2,-69.42 -40.89,56.26 -60,35.17 -69.06,8.2 -66.57,-20.16 -52.91,-45.14 -30.41,-62.55 -2.8,-69.49 25.27,-64.8 49.11,-49.24 64.72,-25.46 -66.14,-21.5 -51.99,-46.19 -29.13,-63.15 -1.4,-69.54 26.57,-64.27 50.1,-48.24 65.22,-24.14 69.44,4.01 62.01,31.48 44.21,53.69 0.01,-69.54 27.86,-63.73"
       style="fill:none;stroke:#4682b4;stroke-width:30;stroke-linecap:round;stroke-linejoin:round;stroke-miterlimit:10;stroke-dasharray:none;stroke-opacity:1"
       transform="matrix(0.13333333,0,0,-0.13333333,0,810.66667)"
       clip-path="url(#clipPath46)" />
    <path
       id="path47"
       d="m 3809.74,4075.2 51.06,-47.22 65.7,-22.82 69.34,5.41 61.36,32.74 43.12,54.57 17.64,67.28 -10.78,68.7 -37.41,58.64"
       style="fill:none;stroke:#4682b4;stroke-width:30;stroke-linecap:round;stroke-linejoin:round;stroke-miterlimit:10;stroke-dasharray:none;stroke-opacity:1"
       transform="matrix(0.13333333,0,0,-0.13333333,0,810.66667)"
       clip-path="url(#clipPath48)" />
    <path
       id="path49"
       d="m 4033.7,4449.1 -14.59,68.64 -41.24,56.77 -60.77,35.08 -69.79,7.34 -66.74,-21.69 -52.14,-46.95 -28.54,-64.11 v -70.16 l 28.54,-64.11 52.14,-46.95 66.74,-21.69 69.79,7.34 60.77,35.09 41.24,56.76 14.59,68.64 v 0"
       style="fill:#ffd700;fill-opacity:1;fill-rule:evenodd;stroke:none"
       transform="matrix(0.13333333,0,0,-0.13333333,0,810.66667)"
       clip-path="url(#clipPath50)" />
    <path
       id="path51"
       d="m 4033.7,4449.1 -14.59,68.64 -41.24,56.77 -60.77,35.08 -69.79,7.34 -66.74,-21.69 -52.14,-46.95 -28.54,-64.11 v -70.16 l 28.54,-64.11 52.14,-46.95 66.74,-21.69 69.79,7.34 60.77,35.09 41.24,56.76 14.59,68.64"
       style="fill:none;stroke:#ffd700;stroke-width:30;stroke-linecap:round;stroke-linejoin:round;stroke-miterlimit:10;stroke-dasharray:none;stroke-opacity:1"
       transform="matrix(0.13333333,0,0,-0.13333333,0,810.66667)"
       clip-path="url(#clipPath52)" />
    <path
       id="path53"
       d="m 3272.17,3917.5 66.15,-21.48 69.22,6.81 60.68,33.97 42.01,55.43 16.28,67.62 -12.17,68.47 -38.58,57.87 -58.53,37.57 -68.68,10.97 -67.32,-17.45 40.87,56.27 14.91,67.93 -13.55,68.22 -39.74,57.08 -59.28,36.38 -68.89,9.58 -66.95,-18.81 -53.81,-44.05 -31.67,-61.93 -4.21,-69.42 -40.88,56.26 -60,35.17 -69.07,8.2 -66.56,-20.16 -52.91,-45.14 -30.41,-62.55 -2.8,-69.49 25.27,-64.8 49.11,-49.24 64.72,-25.46 -66.14,-21.5 -51.99,-46.19 -29.14,-63.15 -1.39,-69.54 26.57,-64.27 50.1,-48.24 65.22,-24.14 69.43,4.01 62.02,31.48 44.21,53.69 v -69.54 l 27.87,-63.73 51.06,-47.22 65.7,-22.82 69.34,5.41 61.36,32.74 43.11,54.57 17.65,67.28 -10.79,68.7 -37.4,58.64 v 0"
       style="fill:#ffa07a;fill-opacity:1;fill-rule:evenodd;stroke:none"
       transform="matrix(0.13333333,0,0,-0.13333333,0,810.66667)"
       clip-path="url(#clipPath54)" />
    <path
       id="path55"
       d="m 3272.17,3917.5 66.15,-21.48 69.22,6.81 60.68,33.97 42.01,55.43 16.28,67.62 -12.17,68.47 -38.58,57.87 -58.53,37.57 -68.68,10.97 -67.32,-17.45 40.87,56.27 14.91,67.93 -13.55,68.22 -39.74,57.08 -59.28,36.38 -68.89,9.58 -66.95,-18.81 -53.81,-44.05 -31.67,-61.93 -4.21,-69.42 -40.88,56.26 -60,35.17 -69.07,8.2 -66.56,-20.16 -52.91,-45.14 -30.41,-62.55 -2.8,-69.49 25.27,-64.8 49.11,-49.24 64.72,-25.46 -66.14,-21.5 -51.99,-46.19 -29.14,-63.15 -1.39,-69.54 26.57,-64.27 50.1,-48.24 65.22,-24.14 69.43,4.01 62.02,31.48 44.21,53.69 v -69.54 l 27.87,-63.73"
       style="fill:none;stroke:#cd5c5c;stroke-width:30;stroke-linecap:round;stroke-linejoin:round;stroke-miterlimit:10;stroke-dasharray:none;stroke-opacity:1"
       transform="matrix(0.13333333,0,0,-0.13333333,0,810.66667)"
       clip-path="url(#clipPath56)" />
    <path
       id="path57"
       d="m 3012.14,3700.2 51.06,-47.22 65.7,-22.82 69.34,5.41 61.36,32.74 43.11,54.57 17.65,67.28 -10.79,68.7 -37.4,58.64"
       style="fill:none;stroke:#cd5c5c;stroke-width:30;stroke-linecap:round;stroke-linejoin:round;stroke-miterlimit:10;stroke-dasharray:none;stroke-opacity:1"
       transform="matrix(0.13333333,0,0,-0.13333333,0,810.66667)"
       clip-path="url(#clipPath58)" />
    <path
       id="path59"
       d="m 3236.1,4074.1 -14.59,68.64 -41.25,56.77 -60.76,35.08 -69.79,7.34 -66.74,-21.69 -52.15,-46.95 -28.53,-64.11 v -70.16 l 28.53,-64.11 52.15,-46.95 66.74,-21.69 69.79,7.34 60.76,35.09 41.25,56.76 14.59,68.64 v 0"
       style="fill:#ffd700;fill-opacity:1;fill-rule:evenodd;stroke:none"
       transform="matrix(0.13333333,0,0,-0.13333333,0,810.66667)"
       clip-path="url(#clipPath60)" />
    <path
       id="path61"
       d="m 3236.1,4074.1 -14.59,68.64 -41.25,56.77 -60.76,35.08 -69.79,7.34 -66.74,-21.69 -52.15,-46.95 -28.53,-64.11 v -70.16 l 28.53,-64.11 52.15,-46.95 66.74,-21.69 69.79,7.34 60.76,35.09 41.25,56.76 14.59,68.64"
       style="fill:none;stroke:#ffd700;stroke-width:30;stroke-linecap:round;stroke-linejoin:round;stroke-miterlimit:10;stroke-dasharray:none;stroke-opacity:1"
       transform="matrix(0.13333333,0,0,-0.13333333,0,810.66667)"
       clip-path="url(#clipPath62)" />
    <path
       id="path63"
       d="m 3525.5,3327.93 66.15,-21.49 69.21,6.81 60.69,33.97 42,55.44 16.28,67.61 -12.17,68.48 -38.57,57.86 -58.54,37.57 -68.67,10.98 -67.33,-17.45 40.88,56.27 14.91,67.93 -13.55,68.22 -39.74,57.07 -59.28,36.38 -68.89,9.59 -66.95,-18.81 -53.82,-44.06 -31.66,-61.92 -4.21,-69.42 -40.88,56.26 -60,35.17 -69.07,8.19 -66.56,-20.16 -52.92,-45.13 -30.4,-62.55 -2.8,-69.49 25.27,-64.8 49.1,-49.25 64.73,-25.45 -66.14,-21.5 -51.99,-46.2 -29.14,-63.15 -1.39,-69.53 26.57,-64.28 50.09,-48.24 65.23,-24.14 69.43,4.01 62.02,31.49 44.2,53.69 0.01,-69.55 27.87,-63.72 51.06,-47.22 65.7,-22.82 69.34,5.41 61.36,32.73 43.11,54.58 17.64,67.27 -10.78,68.71 -37.4,58.64 v 0"
       style="fill:#ee82ee;fill-opacity:1;fill-rule:evenodd;stroke:none"
       transform="matrix(0.13333333,0,0,-0.13333333,0,810.66667)"
       clip-path="url(#clipPath64)" />
    <path
       id="path65"
       d="m 3525.5,3327.93 66.15,-21.49 69.21,6.81 60.69,33.97 42,55.44 16.28,67.61 -12.17,68.48 -38.57,57.86 -58.54,37.57 -68.67,10.98 -67.33,-17.45 40.88,56.27 14.91,67.93 -13.55,68.22 -39.74,57.07 -59.28,36.38 -68.89,9.59 -66.95,-18.81 -53.82,-44.06 -31.66,-61.92 -4.21,-69.42 -40.88,56.26 -60,35.17 -69.07,8.19 -66.56,-20.16 -52.92,-45.13 -30.4,-62.55 -2.8,-69.49 25.27,-64.8 49.1,-49.25 64.73,-25.45 -66.14,-21.5 -51.99,-46.2 -29.14,-63.15 -1.39,-69.53 26.57,-64.28 50.09,-48.24 65.23,-24.14 69.43,4.01 62.02,31.49 44.2,53.69 0.01,-69.55 27.87,-63.72"
       style="fill:none;stroke:#ba55d3;stroke-width:30;stroke-linecap:round;stroke-linejoin:round;stroke-miterlimit:10;stroke-dasharray:none;stroke-opacity:1"
       transform="matrix(0.13333333,0,0,-0.13333333,0,810.66667)"
       clip-path="url(#clipPath66)" />
    <path
       id="path67"
       d="m 3265.47,3110.63 51.06,-47.22 65.7,-22.82 69.34,5.41 61.36,32.73 43.11,54.58 17.64,67.27 -10.78,68.71 -37.4,58.64"
       style="fill:none;stroke:#ba55d3;stroke-width:30;stroke-linecap:round;stroke-linejoin:round;stroke-miterlimit:10;stroke-dasharray:none;stroke-opacity:1"
       transform="matrix(0.13333333,0,0,-0.13333333,0,810.66667)"
       clip-path="url(#clipPath68)" />
    <path
       id="path69"
       d="m 3489.43,3484.52 -14.59,68.64 -41.25,56.77 -60.77,35.09 -69.78,7.33 -66.74,-21.68 -52.15,-46.96 -28.54,-64.1 v -70.17 l 28.54,-64.1 52.15,-46.96 66.74,-21.68 69.78,7.34 60.77,35.08 41.25,56.77 14.59,68.63 v 0"
       style="fill:#ffd700;fill-opacity:1;fill-rule:evenodd;stroke:none"
       transform="matrix(0.13333333,0,0,-0.13333333,0,810.66667)"
       clip-path="url(#clipPath70)" />
    <path
       id="path71"
       d="m 3489.43,3484.52 -14.59,68.64 -41.25,56.77 -60.77,35.09 -69.78,7.33 -66.74,-21.68 -52.15,-46.96 -28.54,-64.1 v -70.17 l 28.54,-64.1 52.15,-46.96 66.74,-21.68 69.78,7.34 60.77,35.08 41.25,56.77 14.59,68.63"
       style="fill:none;stroke:#ffd700;stroke-width:30;stroke-linecap:round;stroke-linejoin:round;stroke-miterlimit:10;stroke-dasharray:none;stroke-opacity:1"
       transform="matrix(0.13333333,0,0,-0.13333333,0,810.66667)"
       clip-path="url(#clipPath72)" />
    <path
       id="path73"
       d="m 4105.32,3657.02 66.15,-21.48 69.22,6.81 60.69,33.97 42,55.43 16.28,67.62 -12.17,68.48 -38.58,57.86 -58.53,37.57 -68.68,10.98 -67.32,-17.45 40.87,56.27 14.91,67.93 -13.55,68.22 -39.74,57.07 -59.28,36.38 -68.88,9.59 -66.96,-18.81 -53.81,-44.06 -31.67,-61.92 -4.2,-69.43 -40.89,56.27 -60,35.17 -69.06,8.19 -66.57,-20.16 -52.91,-45.13 -30.41,-62.55 -2.8,-69.49 25.27,-64.8 49.11,-49.25 64.73,-25.45 -66.15,-21.5 -51.99,-46.19 -29.13,-63.16 -1.4,-69.53 26.58,-64.27 50.09,-48.25 65.23,-24.14 69.43,4.01 62.01,31.49 44.21,53.69 0.01,-69.55 27.86,-63.72 51.06,-47.23 65.7,-22.81 69.34,5.41 61.36,32.74 43.12,54.57 17.64,67.27 -10.78,68.71 -37.41,58.63 v 0"
       style="fill:#ffffff;fill-opacity:1;fill-rule:evenodd;stroke:none"
       transform="matrix(0.13333333,0,0,-0.13333333,0,810.66667)"
       clip-path="url(#clipPath74)" />
    <path
       id="path75"
       d="m 4105.32,3657.02 66.15,-21.48 69.22,6.81 60.69,33.97 42,55.43 16.28,67.62 -12.17,68.48 -38.58,57.86 -58.53,37.57 -68.68,10.98 -67.32,-17.45 40.87,56.27 14.91,67.93 -13.55,68.22 -39.74,57.07 -59.28,36.38 -68.88,9.59 -66.96,-18.81 -53.81,-44.06 -31.67,-61.92 -4.2,-69.43 -40.89,56.27 -60,35.17 -69.06,8.19 -66.57,-20.16 -52.91,-45.13 -30.41,-62.55 -2.8,-69.49 25.27,-64.8 49.11,-49.25 64.73,-25.45 -66.15,-21.5 -51.99,-46.19 -29.13,-63.16 -1.4,-69.53 26.58,-64.27 50.09,-48.25 65.23,-24.14 69.43,4.01 62.01,31.49 44.21,53.69 0.01,-69.55 27.86,-63.72"
       style="fill:none;stroke:#a9a9a9;stroke-width:30;stroke-linecap:round;stroke-linejoin:round;stroke-miterlimit:10;stroke-dasharray:none;stroke-opacity:1"
       transform="matrix(0.13333333,0,0,-0.13333333,0,810.66667)"
       clip-path="url(#clipPath76)" />
    <path
       id="path77"
       d="m 3845.29,3439.73 51.06,-47.23 65.7,-22.81 69.34,5.41 61.36,32.74 43.12,54.57 17.64,67.27 -10.78,68.71 -37.41,58.63"
       style="fill:none;stroke:#a9a9a9;stroke-width:30;stroke-linecap:round;stroke-linejoin:round;stroke-miterlimit:10;stroke-dasharray:none;stroke-opacity:1"
       transform="matrix(0.13333333,0,0,-0.13333333,0,810.66667)"
       clip-path="url(#clipPath78)" />
    <path
       id="path79"
       d="m 4069.25,3813.63 -14.59,68.63 -41.25,56.77 -60.76,35.09 -69.79,7.33 -66.73,-21.68 -52.15,-46.96 -28.54,-64.1 v -70.17 l 28.54,-64.1 52.15,-46.96 66.73,-21.68 69.79,7.33 60.76,35.09 41.25,56.77 14.59,68.64 v 0"
       style="fill:#ffd700;fill-opacity:1;fill-rule:evenodd;stroke:none"
       transform="matrix(0.13333333,0,0,-0.13333333,0,810.66667)"
       clip-path="url(#clipPath80)" />
    <path
       id="path81"
       d="m 4069.25,3813.63 -14.59,68.63 -41.25,56.77 -60.76,35.09 -69.79,7.33 -66.73,-21.68 -52.15,-46.96 -28.54,-64.1 v -70.17 l 28.54,-64.1 52.15,-46.96 66.73,-21.68 69.79,7.33 60.76,35.09 41.25,56.77 14.59,68.64"
       style="fill:none;stroke:#ffd700;stroke-width:30;stroke-linecap:round;stroke-linejoin:round;stroke-miterlimit:10;stroke-dasharray:none;stroke-opacity:1"
       transform="matrix(0.13333333,0,0,-0.13333333,0,810.66667)"
       clip-path="url(#clipPath82)" />
    <text
       id="text82"
       xml:space="preserve"
       transform="matrix(1.3333333,0,0,1.3333333,333.96933,629.588)"
       clip-path="url(#clipPath83)"><tspan
         id="tspan82"
         style="font-variant:normal;font-weight:bold;font-size:30px;font-family:BradleyHandItc-Bold;writing-mode:lr-tb;fill:#d2691e;fill-opacity:1;fill-rule:nonzero;stroke:none"
         x="0"
         y="0">For You Alynee</tspan></text>
  </g>
</svg>
